<svg width="37" height="48" viewBox="0 0 37 48" fill="none" xmlns="http://www.w3.org/2000/svg">
<path d="M19.0789 46.1486C22.1084 43.7236 36 31.8746 36 18.5C36 8.83502 28.165 1 18.5 1C8.83502 1 1 8.83502 1 18.5C1 31.8746 14.8916 43.7236 17.9211 46.1486C18.2674 46.4258 18.7326 46.4258 19.0789 46.1486Z" stroke="#EDEDED" stroke-width="1.5" stroke-linecap="round" stroke-linejoin="round"/>
<path d="M18.4997 24.6408C22.4583 24.6408 25.6674 21.4317 25.6674 17.4731C25.6674 13.5145 22.4583 10.3054 18.4997 10.3054C14.5411 10.3054 11.332 13.5145 11.332 17.4731C11.332 21.4317 14.5411 24.6408 18.4997 24.6408Z" stroke="#EDEDED" stroke-width="1.5" stroke-linecap="round" stroke-linejoin="round"/>
</svg>
