<svg width="52" height="37" viewBox="0 0 52 37" fill="none" xmlns="http://www.w3.org/2000/svg">
<path d="M2.67664 32.984C2.81683 33.9309 3.59393 34.659 4.54875 34.7267C11.3758 35.2108 18.5697 36 26 36C33.4303 36 40.6242 35.2108 47.4512 34.7267C48.4061 34.659 49.1832 33.9309 49.3234 32.984C50.0072 28.3647 51 23.5093 51 18.5C51 13.4906 50.0072 8.6353 49.3234 4.01601C49.1832 3.06912 48.4061 2.34104 47.4512 2.27333C40.6242 1.78916 33.4303 1 26 1C18.5697 1 11.3758 1.78916 4.54875 2.27333C3.59393 2.34104 2.81683 3.06911 2.67664 4.01601C1.99276 8.6353 1 13.4906 1 18.5C1 23.5093 1.99276 28.3647 2.67664 32.984Z" stroke="#EDEDED" stroke-width="1.5" stroke-linejoin="round"/>
<path d="M2.23828 6.71643L24.9561 20.6186C25.5968 21.0107 26.4032 21.0107 27.0439 20.6186L49.7617 6.71643" stroke="#EDEDED" stroke-width="1.5" stroke-linejoin="round"/>
</svg>
