<svg width="38" height="52" viewBox="0 0 38 52" fill="none" xmlns="http://www.w3.org/2000/svg">
<path d="M3.43799 48.1921C3.50252 49.1456 4.22823 49.9263 5.17686 50.0425C15.2758 51.2793 24.146 51.2793 34.245 50.0425C35.1936 49.9263 35.9194 49.1456 35.9839 48.1921C36.4624 41.121 37.2109 33.6683 37.2109 25.9701C37.2109 18.2718 36.4624 10.8192 35.9839 3.74808C35.9194 2.79455 35.1936 2.01389 34.245 1.89771C24.1461 0.660888 15.2758 0.660888 5.17686 1.89771C4.22823 2.01388 3.50252 2.79455 3.43799 3.74808C2.9595 10.8192 2.21094 18.2718 2.21094 25.9701C2.21094 33.6683 2.9595 41.1209 3.43799 48.1921Z" stroke="#EDEDED" stroke-width="1.5"/>
<path d="M16.1306 9.86227C14.7092 9.74814 13.6235 8.57167 13.5118 7.1416C13.3675 5.29243 13.1838 3.2029 13 1.20783C17.391 0.930713 21.609 0.930724 26 1.20786C25.8162 3.20292 25.6325 5.29244 25.4882 7.1416C25.3765 8.57167 24.2908 9.74814 22.8694 9.86227C20.5822 10.0459 18.4178 10.0459 16.1306 9.86227Z" stroke="#EDEDED" stroke-width="1.5"/>
</svg>
