<svg width="25" height="25" viewBox="0 0 25 25" fill="none" xmlns="http://www.w3.org/2000/svg">
<path d="M23.6604 12.8907V6.90095C23.6604 5.91473 22.8609 5.11523 21.8747 5.11523H10.1002C9.11394 5.11523 8.31445 5.91472 8.31445 6.90095V9.09603" stroke="#EDEDED" stroke-width="1.5" stroke-linecap="round" stroke-linejoin="round"/>
<path d="M13.4297 1.33923L15.9874 5.11513L18.545 1.33923" stroke="#EDEDED" stroke-width="1.5" stroke-linecap="round" stroke-linejoin="round"/>
<path d="M11.5812 18.3673L11.2631 15.0011C11.1835 14.1581 10.5816 13.4566 9.76047 13.2498L6.06865 12.32C5.26925 12.1187 4.44353 12.0421 3.62074 12.093L1.37207 12.2321L1.37207 19.912L8.42122 23.1961C10.4364 24.1349 12.7514 24.1929 14.811 23.3561L22.0043 20.4334C22.9215 20.0607 23.398 19.0456 23.0988 18.1019V18.1019C22.7985 17.1549 21.8185 16.5998 20.8519 16.8292L13.1662 18.6534L7.07041 17.5531" stroke="#EDEDED" stroke-width="1.5" stroke-linecap="round" stroke-linejoin="round"/>
<path d="M15.9873 5.11523L15.9873 14.1742" stroke="#EDEDED" stroke-width="1.5" stroke-linecap="round"/>
</svg>
