<svg width="35" height="35" viewBox="0 0 35 35" fill="none" xmlns="http://www.w3.org/2000/svg">
<path d="M0.546875 17.5C0.546875 8.13477 8.13477 0.546875 17.5 0.546875C26.8652 0.546875 34.4531 8.13477 34.4531 17.5C34.4531 26.8652 26.8652 34.4531 17.5 34.4531C8.13477 34.4531 0.546875 26.8652 0.546875 17.5ZM10.3633 19.4756L15.3125 14.3145V26.7969C15.3125 27.7061 16.0439 28.4375 16.9531 28.4375H18.0469C18.9561 28.4375 19.6875 27.7061 19.6875 26.7969V14.3145L24.6367 19.4756C25.2725 20.1387 26.332 20.1523 26.9814 19.5029L27.7266 18.751C28.3691 18.1084 28.3691 17.0693 27.7266 16.4336L18.6621 7.3623C18.0195 6.71973 16.9805 6.71973 16.3447 7.3623L7.2666 16.4336C6.62402 17.0762 6.62402 18.1152 7.2666 18.751L8.01172 19.5029C8.66797 20.1523 9.72754 20.1387 10.3633 19.4756Z" fill="black"/>
</svg>
