<svg width="25" height="25" viewBox="0 0 25 25" fill="none" xmlns="http://www.w3.org/2000/svg">
<path fill-rule="evenodd" clip-rule="evenodd" d="M25 12.5C25 19.4036 19.4036 25 12.5 25C5.59644 25 0 19.4036 0 12.5C0 5.59644 5.59644 0 12.5 0C19.4036 0 25 5.59644 25 12.5ZM12.948 9.22816C11.7322 9.73386 9.30231 10.7805 5.65831 12.3682C5.06658 12.6035 4.7566 12.8337 4.72839 13.0588C4.6807 13.4392 5.15708 13.589 5.80579 13.7929C5.89403 13.8207 5.98546 13.8494 6.07919 13.8799C6.71742 14.0874 7.57595 14.3301 8.02226 14.3397C8.42711 14.3485 8.87897 14.1816 9.37784 13.839C12.7825 11.5407 14.5401 10.3791 14.6504 10.354C14.7283 10.3364 14.8361 10.3142 14.9092 10.3791C14.9823 10.4441 14.9751 10.5671 14.9674 10.6001C14.9202 10.8013 13.0502 12.5398 12.0825 13.4395C11.7808 13.7199 11.5668 13.9189 11.5231 13.9643C11.4251 14.0661 11.3252 14.1624 11.2292 14.2549C10.6363 14.8265 10.1917 15.2551 11.2538 15.9551C11.7643 16.2915 12.1727 16.5696 12.5802 16.8471C13.0252 17.1502 13.4691 17.4525 14.0434 17.8289C14.1898 17.9248 14.3295 18.0245 14.4656 18.1215C14.9835 18.4907 15.4488 18.8224 16.0236 18.7695C16.3576 18.7388 16.7027 18.4247 16.8779 17.488C17.292 15.2742 18.1059 10.4777 18.2941 8.50113C18.3105 8.32796 18.2898 8.10633 18.2732 8.00904C18.2565 7.91176 18.2217 7.77314 18.0953 7.67053C17.9455 7.54901 17.7143 7.52338 17.6109 7.5252C17.1407 7.53348 16.4194 7.7843 12.948 9.22816Z" fill="white"/>
</svg>
