<svg width="45" height="108" viewBox="0 0 45 108" fill="none" xmlns="http://www.w3.org/2000/svg">
<path d="M33.8009 94.3045C34.2851 94.7229 34.6423 95.215 34.8725 95.7805C35.1028 96.346 35.1796 96.9341 35.1031 97.5447L34.0474 97.6896C34.1791 96.591 33.8697 95.7174 33.1192 95.0688C32.07 94.162 31.0084 94.3301 29.9343 95.5729L25.4983 100.706L28.5974 103.384L27.9278 104.159L23.9451 100.717L29.0192 94.8455C29.7864 93.9578 30.5751 93.4693 31.3854 93.38C32.1806 93.2919 32.9857 93.6 33.8009 94.3045Z" fill="white"/>
<path d="M18.1483 90.0446L24.6344 84.6818L25.3277 85.5203L24.1439 86.4991C24.7288 86.403 25.2988 86.4646 25.8538 86.6839C26.4006 86.91 26.8881 87.282 27.3163 87.7999C28.0164 88.6467 28.336 89.5104 28.2753 90.391C28.1995 91.2703 27.7053 92.0871 26.7928 92.8416L23.0319 95.9512L22.308 95.0757L25.9827 92.0374C26.665 91.4733 27.0435 90.8766 27.1184 90.2472C27.1932 89.6179 26.9723 88.9909 26.4557 88.3661C25.8916 87.6838 25.2409 87.3153 24.5036 87.2605C23.7581 87.2126 23.0154 87.4944 22.2755 88.1062L18.8722 90.9201L18.1483 90.0446Z" fill="white"/>
<path d="M13.8372 89.5662L13.2345 88.6033L23.2974 82.3039L23.9001 83.2668L13.8372 89.5662Z" fill="white"/>
<path d="M14.4065 83.7039L13.8837 82.6953L21.3555 78.8223L21.8783 79.8309L14.4065 83.7039ZM12.5078 84.0393C12.6158 84.2476 12.6356 84.4596 12.5672 84.6753C12.4988 84.891 12.3651 85.0504 12.1662 85.1535C11.9768 85.2516 11.7743 85.2665 11.5586 85.1981C11.3429 85.1297 11.1811 84.9913 11.0731 84.783C10.9651 84.5746 10.9453 84.3626 11.0137 84.1469C11.0727 83.9361 11.1969 83.7817 11.3863 83.6835C11.5946 83.5755 11.8066 83.5557 12.0223 83.6241C12.238 83.6926 12.3998 83.8309 12.5078 84.0393Z" fill="white"/>
<path d="M11.2022 76.7073C10.8201 75.6772 10.7871 74.7907 11.1031 74.0478C11.4091 73.3085 12.0671 72.7515 13.0772 72.3769L17.9676 70.5628L18.346 71.5829L17.1159 72.0392C17.615 72.1271 18.0667 72.3634 18.4711 72.7481C18.8717 73.1228 19.1908 73.6302 19.4282 74.2703C19.7546 75.1503 19.8043 75.9283 19.5772 76.6041C19.3501 77.28 18.8915 77.7459 18.2014 78.0019C17.5314 78.2504 16.9023 78.2107 16.3142 77.8828C15.7224 77.5449 15.2299 76.8458 14.8366 75.7858L13.9073 73.2806L13.4273 73.4586C12.7472 73.7109 12.3027 74.092 12.0936 74.6018C11.8746 75.1154 11.9005 75.7372 12.1713 76.4673C12.3568 76.9673 12.6198 77.4158 12.9605 77.8128C13.2912 78.2135 13.6627 78.525 14.0751 78.7475L13.4582 79.5225C12.9697 79.2486 12.5317 78.865 12.1439 78.3717C11.7461 77.8821 11.4322 77.3273 11.2022 76.7073ZM18.5269 74.4169C18.3043 73.8168 17.9783 73.3519 17.5487 73.022C17.1092 72.6958 16.5904 72.5242 15.9925 72.5071L14.7024 72.9856L15.6206 75.4608C16.1214 76.8109 16.8418 77.3116 17.7819 76.9629C18.2419 76.7923 18.542 76.4818 18.6822 76.0317C18.8124 75.5852 18.7606 75.0469 18.5269 74.4169Z" fill="white"/>
<path d="M4.68581 57.4835L16.3406 61.2529L16.4619 62.4146L5.83792 68.5115L5.70492 67.2384L14.9347 61.9629L4.8105 58.677L4.68581 57.4835Z" fill="white"/>
<path d="M12.8266 48.185L12.257 55.2019C13.134 55.2089 13.8681 54.9314 14.4596 54.3694C15.0403 53.8066 15.3683 53.0627 15.4433 52.1377C15.4856 51.6167 15.4341 51.131 15.2887 50.6804C15.1328 50.229 14.887 49.8291 14.5514 49.4808L15.3368 48.9025C15.7531 49.3108 16.0553 49.8062 16.2435 50.3887C16.4325 50.9605 16.4998 51.5813 16.4455 52.2511C16.3755 53.1123 16.1327 53.8631 15.7168 54.5036C15.2912 55.1325 14.739 55.6067 14.0603 55.9262C13.3815 56.2457 12.6329 56.3722 11.8142 56.3057C10.9956 56.2393 10.2762 56.0043 9.65617 55.6008C9.03698 55.1867 8.57168 54.6566 8.26026 54.0107C7.9497 53.354 7.82592 52.6377 7.88892 51.8616C7.95192 51.0854 8.18919 50.4037 8.60072 49.8164C9.01226 49.2292 9.55653 48.7864 10.2335 48.4882C10.8999 48.1891 11.6478 48.0733 12.477 48.1406L12.8266 48.185ZM8.86172 51.9405C8.79613 52.7485 9.00137 53.4501 9.47745 54.0452C9.94375 54.6289 10.5885 54.9916 11.4118 55.1333L11.8946 49.1849C11.0593 49.192 10.3641 49.4513 9.80885 49.9627C9.24389 50.4626 8.92817 51.1219 8.86172 51.9405Z" fill="white"/>
<path d="M5.39553 45.2318L5.62539 44.1193L17.2518 46.5216L17.0219 47.6341L5.39553 45.2318Z" fill="white"/>
<path d="M12.0982 34.4638L19.7106 41.433C20.3517 42.0061 20.7584 42.5575 20.9306 43.087C21.1029 43.6165 21.0896 44.1798 20.8908 44.7769C20.7628 45.1615 20.5825 45.5006 20.3498 45.7941C20.1172 46.0877 19.839 46.3155 19.5153 46.4775L18.8775 45.7087C19.417 45.4386 19.7812 45.0202 19.9698 44.4535C20.0911 44.0891 20.0927 43.7468 19.9745 43.4264C19.8597 43.0958 19.5964 42.7384 19.1848 42.354L18.5268 41.7471L9.36919 42.6615L9.74316 41.5381L17.5297 40.7912L11.7444 35.5264L12.0982 34.4638Z" fill="white"/>
<path d="M21.8982 34.0589C21.5153 34.7975 21.0107 35.377 20.3844 35.7972C19.7629 36.208 19.0775 36.4294 18.328 36.4614C17.5691 36.4885 16.825 36.3131 16.0958 35.9351C15.3666 35.5571 14.7991 35.0527 14.3932 34.4218C13.9873 33.7909 13.7731 33.1032 13.7506 32.3586C13.733 31.6046 13.9156 30.8582 14.2985 30.1196C14.6323 29.4756 15.0571 28.9689 15.573 28.5996C16.0842 28.2158 16.6575 28.0023 17.2926 27.9591L17.4137 28.977C16.9168 29.0318 16.4802 29.202 16.1039 29.4875C15.7181 29.7681 15.4099 30.131 15.1792 30.5761C14.8994 31.1159 14.7697 31.6674 14.7901 32.2306C14.806 32.7795 14.9726 33.2924 15.2901 33.7694C15.6125 34.2368 16.0577 34.6178 16.6259 34.9123C17.2036 35.2118 17.7764 35.3585 18.3442 35.3524C18.9074 35.332 19.4226 35.1725 19.8897 34.874C20.3523 34.5611 20.7235 34.1348 21.0033 33.595C21.234 33.1499 21.3575 32.6913 21.374 32.2192C21.3904 31.7472 21.2777 31.2923 21.036 30.8546L21.9377 30.3669C22.2685 30.9108 22.4292 31.5047 22.4198 32.1486C22.4009 32.7876 22.2271 33.4244 21.8982 34.0589Z" fill="white"/>
<path d="M19.8404 21.5845C20.4801 20.7444 21.2335 20.2656 22.1005 20.1482C22.9655 20.0158 23.8648 20.305 24.7983 21.0159L28.6808 23.9722L27.9926 24.8761L24.1992 21.9875C23.5033 21.4576 22.8404 21.2277 22.2106 21.2978C21.5807 21.3679 21.0202 21.7254 20.5291 22.3704C19.9798 23.0917 19.76 23.8293 19.8697 24.5832C19.9774 25.3222 20.4089 25.9792 21.1642 26.5543L24.6776 29.2296L23.9894 30.1334L14.544 22.9412L15.2322 22.0373L19.1529 25.0228C18.9499 24.4794 18.9071 23.9106 19.0246 23.3162C19.142 22.7219 19.4139 22.1446 19.8404 21.5845Z" fill="white"/>
<path d="M29.1046 17.8288L28.8839 20.5148L30.5118 22.2783L29.6771 23.0489L21.6245 14.3254L22.4592 13.5548L27.918 19.4685L28.495 12.6866L29.5296 11.7315L29.2176 16.7011L35.4849 17.6877L34.4621 18.6319L29.1046 17.8288Z" fill="white"/>
<path d="M38.4892 15.991C37.8085 16.4312 37.0964 16.6757 36.3531 16.7244C35.604 16.7642 34.8961 16.6123 34.2292 16.2686C33.5624 15.925 33.006 15.4083 32.5601 14.7186C32.1141 14.0289 31.8712 13.3095 31.8314 12.5604C31.7916 11.8113 31.9464 11.1078 32.2959 10.4499C32.6453 9.79207 33.1604 9.24305 33.8412 8.80287C34.5219 8.36268 35.234 8.11821 35.9773 8.06944C36.7206 8.02068 37.4212 8.17103 38.079 8.52049C38.7458 8.86416 39.3022 9.38085 39.7482 10.0706C40.1942 10.7603 40.4371 11.4797 40.4769 12.2288C40.5257 12.9721 40.3782 13.6771 40.0345 14.344C39.6851 15.0018 39.17 15.5508 38.4892 15.991ZM37.9419 15.1446C38.4435 14.8202 38.8189 14.4186 39.0683 13.9399C39.3207 13.4464 39.4228 12.9167 39.3745 12.3509C39.3263 11.7851 39.1284 11.2335 38.7808 10.6961C38.4333 10.1587 38.0115 9.75184 37.5153 9.47565C37.0192 9.19946 36.4972 9.07972 35.9493 9.11643C35.4046 9.13839 34.8814 9.31154 34.3798 9.63589C33.8782 9.96024 33.5012 10.3692 33.2487 10.8627C32.9994 11.3415 32.8944 11.8666 32.9337 12.4382C32.982 13.004 33.1799 13.5556 33.5274 14.0931C33.875 14.6305 34.2968 15.0373 34.7929 15.3135C35.2981 15.5839 35.823 15.7081 36.3677 15.6861C36.9155 15.6494 37.4403 15.4689 37.9419 15.1446Z" fill="white"/>
</svg>
